<svg width="100%" height="100%" viewBox="0 0 40 40" fill="none" xmlns="http://www.w3.org/2000/svg">
<circle cx="20" cy="20" r="18.5" stroke="white" stroke-width="3"/>
<path d="M16.25 27.5H14C13.6022 27.5 13.2206 27.342 12.9393 27.0607C12.658 26.7794 12.5 26.3978 12.5 26V20.75C12.5 20.3522 12.658 19.9706 12.9393 19.6893C13.2206 19.408 13.6022 19.25 14 19.25H16.25M21.5 17.75V14.75C21.5 14.1533 21.2629 13.581 20.841 13.159C20.419 12.7371 19.8467 12.5 19.25 12.5L16.25 19.25V27.5H24.71C25.0717 27.5041 25.4228 27.3773 25.6984 27.143C25.9741 26.9087 26.1558 26.5827 26.21 26.225L27.245 19.475C27.2776 19.26 27.2631 19.0405 27.2025 18.8317C27.1419 18.6229 27.0366 18.4297 26.8939 18.2656C26.7512 18.1016 26.5746 17.9704 26.3762 17.8814C26.1778 17.7924 25.9624 17.7475 25.745 17.75H21.5Z" stroke="white" stroke-width="2" stroke-linecap="round" stroke-linejoin="round"/>
</svg>
